<svg width="24" height="24" viewBox="0 0 24 24" fill="none" xmlns="http://www.w3.org/2000/svg">
<path d="M4.66867 11.0841C5.10621 6.71201 8.03441 2.66663 12.4284 2.66663C16.5967 2.66663 19.4992 6.30674 19.8378 10.4613C20.0106 12.5812 20.5405 14.7325 21.6901 17.3835C22.0097 18.1203 21.4833 18.9629 20.6801 18.9629H3.69821C2.85339 18.9629 2.32924 18.0383 2.71824 17.2883C3.84741 15.1114 4.4598 13.1712 4.66867 11.0841Z" fill="#1EA1F1"/>
<path d="M15.9012 18.9629C15.9012 20.763 14.442 22.2222 12.642 22.2222C10.8419 22.2222 9.38271 20.763 9.38271 18.9629M12.4284 2.66663C16.5967 2.66663 19.4992 6.30674 19.8378 10.4613C20.0106 12.5812 20.5405 14.7325 21.6901 17.3835C22.0097 18.1203 21.4833 18.9629 20.6801 18.9629H3.69821C2.85339 18.9629 2.32924 18.0383 2.71824 17.2883C3.84741 15.1114 4.4598 13.1712 4.66867 11.0841C5.10621 6.71201 8.03441 2.66663 12.4284 2.66663Z" stroke="#1EA1F1" stroke-width="0.888889"/>
</svg>
