<svg width="26" height="26" viewBox="0 0 26 26" fill="none" xmlns="http://www.w3.org/2000/svg">
<path d="M21.5583 25.4583C21.3882 25.4583 21.2203 25.4042 21.0795 25.3023L13 19.422L4.92048 25.3045C4.67348 25.4822 4.34632 25.5103 4.07332 25.3695C3.80248 25.2319 3.62915 24.9524 3.62915 24.6469V6.06668C3.62915 4.72335 4.72332 3.62918 6.06665 3.62918H19.9312C21.2745 3.62918 22.3687 4.72335 22.3687 6.06668V24.6458C22.3687 24.9513 22.1975 25.2308 21.9245 25.3695C21.8097 25.4291 21.6829 25.4583 21.5562 25.4583H21.5583ZM13 17.6042C13.1679 17.6042 13.3358 17.6562 13.4767 17.7602L20.7458 23.0501V6.06668C20.7458 5.62035 20.3807 5.25418 19.9333 5.25418H6.06665C5.61923 5.25418 5.25415 5.62035 5.25415 6.06668V23.0501L12.5233 17.7602C12.6642 17.6562 12.8321 17.6042 13 17.6042Z" fill="black"/>
</svg>
