<svg width="25" height="24" viewBox="0 0 25 24" fill="none" xmlns="http://www.w3.org/2000/svg">
<path d="M8.979 12H11V15.0316H8.979C7.3047 15.0316 5.94742 13.6743 5.94742 12C5.94742 10.3258 7.3047 8.96847 8.979 8.96847H11V9.4375M13.4 15.5369V8.49933M19.4632 8.96847H15.9264V12M15.9264 15.5369V12M15.9264 12H17.9474M4.8211 21.6H19.979C21.0952 21.6 22 20.6952 22 19.579V4.42108C22 3.30488 21.0952 2.40002 19.979 2.40002H4.8211C3.70491 2.40002 2.80005 3.30488 2.80005 4.42108V19.579C2.80005 20.6952 3.70491 21.6 4.8211 21.6Z" stroke="#1EA1F1" stroke-width="0.96"/>
</svg>
