<svg width="26" height="26" viewBox="0 0 26 26" fill="none" xmlns="http://www.w3.org/2000/svg">
<path d="M22.75 7.94844H18.4925L18.8955 3.32044C18.9345 2.87411 18.603 2.48086 18.1567 2.44078C17.7049 2.40828 17.316 2.73328 17.277 3.18069L16.8621 7.94736H10.0154L10.4163 3.32153C10.4563 2.87411 10.1238 2.48086 9.67958 2.44078C9.22458 2.40828 8.83783 2.73328 8.79883 3.18069L8.385 7.94736H4.09717C3.64867 7.94736 3.28467 8.31244 3.28467 8.75986C3.28467 9.20728 3.64867 9.57236 4.09717 9.57236H8.24417L7.64833 16.4266H3.25C2.8015 16.4266 2.4375 16.7906 2.4375 17.2391C2.4375 17.6876 2.8015 18.0516 3.25 18.0516H7.5075L7.1045 22.6796C7.0655 23.1259 7.397 23.5192 7.84333 23.5593L7.91483 23.5625C8.33192 23.5625 8.68617 23.2429 8.723 22.8194L9.13792 18.0527H15.9846L15.5838 22.6785C15.5448 23.1259 15.8763 23.5192 16.3226 23.5593L16.3941 23.5625C16.8112 23.5625 17.1654 23.2429 17.2023 22.8194L17.6161 18.0527H21.9028C22.3503 18.0527 22.7153 17.6876 22.7153 17.2402C22.7153 16.7928 22.3503 16.4277 21.9028 16.4277H17.7558L18.3517 9.57344H22.75C23.1985 9.57344 23.5625 9.20944 23.5625 8.76094C23.5625 8.31244 23.1985 7.94844 22.75 7.94844V7.94844ZM16.1254 16.4266H9.27875L9.87458 9.57344H16.7213L16.1254 16.4266Z" fill="black"/>
</svg>
