<svg width="24" height="24" viewBox="0 0 24 24" fill="none" xmlns="http://www.w3.org/2000/svg">
<path d="M16.8 21.6H19.2C20.5255 21.6 21.6 20.5255 21.6 19.2V13.8M16.8 21.6L11.85 15M16.8 21.6H4.80002C3.47454 21.6 2.40002 20.5255 2.40002 19.2V18.6M21.6 13.8V4.80002C21.6 3.47454 20.5255 2.40002 19.2 2.40002H4.80002C3.47454 2.40002 2.40002 3.47454 2.40002 4.80002V18.6M21.6 13.8L17.7338 9.93381C17.2332 9.43318 16.4102 9.47255 15.9596 10.0187L11.85 15M2.40002 18.6L8.62377 12.8949C9.14668 12.4156 9.96902 12.492 10.3946 13.0595L11.85 15" stroke="#1EA1F1" stroke-width="0.96"/>
<path d="M16.8 21.6H19.2C20.5255 21.6 21.6 20.5255 21.6 19.2V13.8M16.8 21.6L11.85 15M16.8 21.6H4.80002C3.47454 21.6 2.40002 20.5255 2.40002 19.2V18.6M21.6 13.8V4.80002C21.6 3.47454 20.5255 2.40002 19.2 2.40002H4.80002C3.47454 2.40002 2.40002 3.47454 2.40002 4.80002V18.6M21.6 13.8L17.7338 9.93381C17.2332 9.43318 16.4102 9.47255 15.9596 10.0187L11.85 15M2.40002 18.6L8.62377 12.8949C9.14668 12.4156 9.96902 12.492 10.3946 13.0595L11.85 15" stroke="#1EA1F1" stroke-width="0.96"/>
<path d="M10.92 7.8C10.92 8.52902 10.3291 9.12 9.60005 9.12C8.87103 9.12 8.28005 8.52902 8.28005 7.8C8.28005 7.07098 8.87103 6.48 9.60005 6.48C10.3291 6.48 10.92 7.07098 10.92 7.8Z" fill="#1EA1F1" stroke="#1EA1F1" stroke-width="0.96"/>
<path d="M10.92 7.8C10.92 8.52902 10.3291 9.12 9.60005 9.12C8.87103 9.12 8.28005 8.52902 8.28005 7.8C8.28005 7.07098 8.87103 6.48 9.60005 6.48C10.3291 6.48 10.92 7.07098 10.92 7.8Z" fill="#1EA1F1" stroke="#1EA1F1" stroke-width="0.96"/>
</svg>
