<svg width="24" height="24" viewBox="0 0 24 24" fill="none" xmlns="http://www.w3.org/2000/svg">
<path fill-rule="evenodd" clip-rule="evenodd" d="M4.7273 2C3.72315 2 2.90912 2.81403 2.90912 3.81818V20.1818C2.90912 21.186 3.72315 22 4.7273 22H19.2728C20.2769 22 21.0909 21.186 21.0909 20.1818V3.81818C21.0909 2.81403 20.2769 2 19.2728 2H4.7273ZM6.54545 6.09091C6.29442 6.09091 6.09091 6.29442 6.09091 6.54545C6.09091 6.79649 6.29442 7 6.54545 7H17.4545C17.7056 7 17.9091 6.79649 17.9091 6.54545C17.9091 6.29442 17.7056 6.09091 17.4545 6.09091H6.54545ZM6.54545 10.6364C6.29442 10.6364 6.09091 10.8399 6.09091 11.0909C6.09091 11.3419 6.29442 11.5455 6.54545 11.5455H17.4545C17.7056 11.5455 17.9091 11.3419 17.9091 11.0909C17.9091 10.8399 17.7056 10.6364 17.4545 10.6364H6.54545ZM6.54545 15.1818C6.29442 15.1818 6.09091 15.3853 6.09091 15.6364C6.09091 15.8874 6.29442 16.0909 6.54545 16.0909H11.0909C11.3419 16.0909 11.5455 15.8874 11.5455 15.6364C11.5455 15.3853 11.3419 15.1818 11.0909 15.1818H6.54545Z" fill="#1EA1F1"/>
</svg>
