<svg width="31" height="26" viewBox="0 0 31 26" fill="none" xmlns="http://www.w3.org/2000/svg">
<path d="M30.524 3.58264C29.4107 4.07598 28.2147 4.40931 26.9573 4.55998C28.24 3.79198 29.224 2.57331 29.688 1.12264C28.488 1.83464 27.1587 2.35198 25.744 2.62931C24.6107 1.42398 22.9973 0.669312 21.2107 0.669312C17.7813 0.669312 15 3.45065 15 6.88265C15 7.36798 15.056 7.83998 15.16 8.29598C9.996 8.03598 5.42133 5.56265 2.35733 1.80531C1.824 2.72531 1.51733 3.79198 1.51733 4.92798C1.51733 7.08265 2.61466 8.98531 4.28 10.0986C3.26133 10.0653 2.304 9.78665 1.46666 9.32131V9.40131C1.46666 12.4106 3.60666 14.9213 6.44933 15.492C5.92666 15.6333 5.37866 15.708 4.81333 15.708C4.41333 15.708 4.02266 15.6706 3.644 15.5986C4.43466 18.0653 6.728 19.8626 9.44666 19.9106C7.32 21.5773 4.64133 22.5706 1.732 22.5706C1.23066 22.5706 0.735995 22.5413 0.249329 22.484C2.99866 24.248 6.26266 25.2746 9.76933 25.2746C21.196 25.2746 27.4427 15.8106 27.4427 7.60265C27.4427 7.33598 27.436 7.06665 27.424 6.79998C28.6373 5.92265 29.6907 4.83065 30.5213 3.58665L30.524 3.58264Z" fill="#1DA1F2" />
</svg>