<svg width="25" height="24" viewBox="0 0 25 24" fill="none" xmlns="http://www.w3.org/2000/svg">
<path d="M9.47317 18.6146H5.99024C5.44065 18.6146 4.99512 18.1691 4.99512 17.6195V5.92678M20.4195 5.92678V3.68776C20.4195 3.13817 19.974 2.69263 19.4244 2.69263H16.439M20.4195 5.92678V9.16093M20.4195 5.92678H4.99512M4.99512 5.92678V3.68776C4.99512 3.13817 5.44065 2.69263 5.99024 2.69263H8.47804M8.47804 2.69263V1.19995M8.47804 2.69263V4.18532M8.47804 2.69263H16.439M16.439 2.69263V1.19995M16.439 2.69263V4.18532M15.9415 12.6439V15.6292L18.4293 17.1219M21.9122 15.6292C21.9122 18.9268 19.239 21.6 15.9415 21.6C12.6439 21.6 9.97073 18.9268 9.97073 15.6292C9.97073 12.3317 12.6439 9.65849 15.9415 9.65849C19.239 9.65849 21.9122 12.3317 21.9122 15.6292Z" stroke="#1EA1F1" stroke-width="0.96" stroke-linecap="round"/>
</svg>
