<svg width="24" height="24" viewBox="0 0 24 24" fill="none" xmlns="http://www.w3.org/2000/svg">
<path d="M10.4472 4.0698C11.0239 2.6434 13.0434 2.6434 13.62 4.0698C14.0006 5.01129 15.1127 5.41604 16.0094 4.93948C17.368 4.21745 18.9151 5.51557 18.4399 6.97892C18.1263 7.94479 18.718 8.96967 19.7113 9.18101C21.2162 9.50121 21.5669 11.49 20.2623 12.3056C19.4012 12.8439 19.1957 14.0094 19.8207 14.8097C20.7677 16.0223 19.7579 17.7713 18.2343 17.5575C17.2287 17.4164 16.3221 18.177 16.2864 19.1919C16.2324 20.7295 14.3347 21.4202 13.305 20.2771C12.6253 19.5226 11.4419 19.5226 10.7622 20.2771C9.73249 21.4202 7.83478 20.7295 7.78076 19.1919C7.74511 18.177 6.83855 17.4164 5.83289 17.5575C4.30927 17.7713 3.29952 16.0223 4.24649 14.8097C4.87154 14.0094 4.66604 12.8439 3.80495 12.3056C2.50035 11.49 2.85103 9.50121 4.3559 9.18101C5.34917 8.96967 5.94089 7.94479 5.62728 6.97892C5.15215 5.51557 6.69918 4.21745 8.05779 4.93948C8.95453 5.41604 10.0666 5.01129 10.4472 4.0698Z" stroke="#1EA1F1"/>
<path d="M15 12C15 13.6569 13.6569 15 12 15C10.3431 15 9 13.6569 9 12C9 10.3431 10.3431 9 12 9C13.6569 9 15 10.3431 15 12Z" stroke="#1EA1F1"/>
</svg>
