<svg width="25" height="24" viewBox="0 0 25 24" fill="none" xmlns="http://www.w3.org/2000/svg">
<path d="M7.85726 14.0572C9.80012 17.9429 16.1144 17.9429 18.0573 14.0572M23.4001 12.6C23.4001 18.2333 18.8334 22.8 13.2001 22.8C7.56682 22.8 3.00012 18.2333 3.00012 12.6C3.00012 6.96672 7.56682 2.40002 13.2001 2.40002C18.8334 2.40002 23.4001 6.96672 23.4001 12.6ZM11.743 9.68574C11.743 10.4905 11.0906 11.1429 10.2858 11.1429C9.48108 11.1429 8.82869 10.4905 8.82869 9.68574C8.82869 8.88098 9.48108 8.2286 10.2858 8.2286C11.0906 8.2286 11.743 8.88098 11.743 9.68574ZM17.5716 9.68574C17.5716 10.4905 16.9192 11.1429 16.1144 11.1429C15.3096 11.1429 14.6573 10.4905 14.6573 9.68574C14.6573 8.88098 15.3096 8.2286 16.1144 8.2286C16.9192 8.2286 17.5716 8.88098 17.5716 9.68574Z" stroke="#1EA1F1" stroke-width="0.96" stroke-linecap="round"/>
</svg>
