<svg width="24" height="24" viewBox="0 0 24 24" fill="none" xmlns="http://www.w3.org/2000/svg">
<path d="M5 8V5M5 2V5M5 5H8H2M8 17.5V19.75M8 22V19.75M8 19.75H10.5H5.5M12.4069 9.03581L6.46603 11.3208C6.29761 11.3855 6.29433 11.6226 6.4609 11.692L11.9183 13.966C11.9703 13.9876 12.0108 14.0303 12.0298 14.0833L14.3117 20.4726C14.3749 20.6496 14.6251 20.6496 14.6883 20.4726L16.9702 14.0833C16.9892 14.0303 17.0297 13.9876 17.0817 13.966L22.5569 11.6846C22.721 11.6162 22.721 11.3838 22.5569 11.3154L17.0817 9.03403C17.0297 9.01236 16.9892 8.96975 16.9702 8.91668L14.7095 2.58665C14.6441 2.40352 14.3823 2.412 14.3289 2.59897L12.5274 8.90408C12.5101 8.96448 12.4655 9.01326 12.4069 9.03581Z" stroke="#1EA1F1" stroke-linecap="round" stroke-linejoin="round"/>
</svg>
